<mxfile host="app.diagrams.net" modified="2023-05-18T22:47:32.850Z" agent="Mozilla/5.0 (Windows NT 10.0; Win64; x64) AppleWebKit/537.36 (KHTML, like Gecko) Chrome/113.0.0.0 Safari/537.36" version="21.3.2" etag="s28bB5tzYxUG-X1l4L1J" type="github">
  <diagram name="PÃ¡gina-1" id="Jv3GwCeGytZocXuP4GpD">
    <mxGraphModel>
      <root>
        <mxCell id="0" />
        <mxCell id="1" parent="0" />
      </root>
    </mxGraphModel>
  </diagram>
</mxfile>
